# xmcd
#
# Track frame offsets:
#	150
#	17530
#	36118
#	47944
#	65188
#	77548
#	93208
#	108052
#	122374
#	133750
#	145132
#	155566
#	168610
#	183322
#	195598
#	213532
#	224806
#	237064
#	252658
#	267232
#	279808
#	294634
#	307468
#	321436
#	339094
#
# Disc length: 4683 seconds
#
# Revision: 0
# Processed by: cddbd v1.5PL3 Copyright (c) Steve Scherf et al.
# Submitted via: dBpowerAMP V4.0
#
DISCID=7b124919
DTITLE=VVAA - Lovesongs Top 100 Vol. 1
DYEAR=2000
DGENRE=
TTITLE0=Lutricia McNeal - The greatest love you'll never
TTITLE1=Toby Bourke and Georde Michael - Waltz away dreaming '99
TTITLE2=Crystal Gayle - Don't it make my brown eyes blues
TTITLE3=Ten Cc - I'm not in love
TTITLE4=Harold Melvin and The Blue Notes - If you don't know me by now
TTITLE5=The Korgis Everybody's got to learn sometimes
TTITLE6=Morris Albert - Feelings
TTITLE7=T-Pau - China in your hand
TTITLE8=Jason Donovan - Sealed with a kiss
TTITLE9=Phil Carmen - On my way in L.A. '95
TTITLE10=Timi Yuro - Hurt
TTITLE11=The Turtles - Happy together
TTITLE12=Tom Jones - Unchained Melody
TTITLE13=Tony wilson - Young lover
TTITLE14=George Williams - Unchain my heart
TTITLE15=Hall and Oates - A lot of changes comin'
TTITLE16=B J Thomas - Hooked on a feeling
TTITLE17=aretha Franklin - I say a little prayer
TTITLE18=Phyllis Nelson - Move closer
TTITLE19=Dinah Washington - Mad about the boy
TTITLE20=Dennis Edwards - Don't look any further
TTITLE21=Earl Duke - I've been loving you too long
TTITLE22=Donna Summer - La vie en rose
TTITLE23=Peaches and Herb - Reunited
TTITLE24=Gladys Knight and The Pips - Best thing that ever happened to me
EXTD=
EXTT0=
EXTT1=
EXTT2=
EXTT3=
EXTT4=
EXTT5=
EXTT6=
EXTT7=
EXTT8=
EXTT9=
EXTT10=
EXTT11=
EXTT12=
EXTT13=
EXTT14=
EXTT15=
EXTT16=
EXTT17=
EXTT18=
EXTT19=
EXTT20=
EXTT21=
EXTT22=
EXTT23=
EXTT24=
PLAYORDER=
